<?xml version="1.0" standalone="no"?>
<!DOCTYPE svg PUBLIC "-//W3C//DTD SVG 20010904//EN"
 "http://www.w3.org/TR/2001/REC-SVG-20010904/DTD/svg10.dtd">
<svg version="1.0" xmlns="http://www.w3.org/2000/svg"
 width="239.000000pt" height="211.000000pt" viewBox="0 0 239.000000 211.000000"
 preserveAspectRatio="xMidYMid meet">

<g transform="translate(0.000000,211.000000) scale(0.100000,-0.100000)"
fill="#000000" stroke="none">
<path d="M1154 2048 c-9 -17 -24 -46 -34 -62 -9 -17 -66 -116 -125 -221 -59
-104 -121 -215 -138 -245 -17 -30 -79 -142 -139 -249 -59 -106 -108 -196 -108
-198 0 -3 -8 -17 -19 -31 -10 -15 -43 -72 -73 -127 -30 -55 -90 -161 -133
-235 -88 -153 -205 -376 -205 -393 0 -6 7 -2 16 9 8 10 13 13 9 6 -4 -8 1 -11
15 -9 11 2 49 37 83 78 215 259 440 377 937 493 128 30 544 91 559 82 4 -3 13
-1 21 4 11 6 9 15 -10 47 -12 21 -34 58 -48 83 -14 25 -80 140 -147 255 -187
320 -368 634 -401 692 -16 29 -32 53 -36 53 -4 0 -15 -14 -24 -32z"/>
<path d="M1778 882 c-74 -77 -112 -139 -134 -219 -15 -57 -16 -76 -6 -146 12
-84 55 -190 89 -217 15 -13 51 -14 231 -10 174 4 215 2 221 -9 7 -11 9 -10 14
3 10 26 -21 89 -166 331 -17 28 -38 64 -47 80 -105 182 -142 245 -144 245 -1
0 -28 -26 -58 -58z"/>
<path d="M1550 860 c-9 -6 -10 -10 -3 -10 6 0 15 5 18 10 8 12 4 12 -15 0z"/>
<path d="M1490 840 c-12 -8 -11 -10 7 -10 12 0 25 5 28 10 8 13 -15 13 -35 0z"/>
<path d="M1395 805 c-16 -8 -64 -28 -105 -47 -83 -36 -190 -102 -232 -142 -59
-57 -163 -242 -151 -272 3 -10 22 -14 59 -14 53 0 53 0 63 38 6 20 11 41 11
45 0 5 7 33 16 63 30 105 125 193 316 294 51 27 84 49 73 49 -11 0 -33 -6 -50
-14z"/>
</g>
</svg>
